HIERARCHY
ROOT root
{
	OFFSET	0	13.1	24.9
	CHANNELS 6  Xposition Yposition Zposition Xrotation Yrotation Zrotation
	JOINT spine_1
	{
		OFFSET	0	9.99999	0
		CHANNELS 3  Xrotation Yrotation Zrotation
		JOINT spine_2
		{
			OFFSET	0	112	-10
			CHANNELS 3  Xrotation Yrotation Zrotation
			JOINT spine_3
			{
				OFFSET	0	206.5	19.3
				CHANNELS 3  Xrotation Yrotation Zrotation
				JOINT spine_4
				{
					OFFSET	0	110.4	14.6
					CHANNELS 3  Xrotation Yrotation Zrotation
					JOINT neck_1
					{
						OFFSET	0	71.8	-50.3
						CHANNELS 3  Xrotation Yrotation Zrotation
						JOINT neck_2
						{
							OFFSET	0	86.2	-25.8
							CHANNELS 3  Xrotation Yrotation Zrotation
							JOINT head_ee
							{
								OFFSET	0	179.8	-8.7
								CHANNELS 3  Xrotation Yrotation Zrotation
								End Site
								{
									OFFSET	1	0	0
								}
							}
						}
					}
					JOINT left_clavicle
					{
						OFFSET	-43.2	22.4	-70.8
						CHANNELS 3  Xrotation Yrotation Zrotation
						JOINT left_shoulder
						{
							OFFSET	-93.9	-5.79999	48.7
							CHANNELS 3  Xrotation Yrotation Zrotation
							JOINT left_elbow
							{
								OFFSET	-291.4	-30.8	15.2
								CHANNELS 3  Xrotation Yrotation Zrotation
								JOINT left_lowarm_twist
								{
									OFFSET	-110.7	-3.89999	13.6
									CHANNELS 3  Xrotation Yrotation Zrotation
									JOINT left_hand
									{
										OFFSET	-110.7	-3.89999	13.6
										CHANNELS 3  Xrotation Yrotation Zrotation
										JOINT left_ee
										{
											OFFSET	-80.8	-5.10001	12.1
											CHANNELS 3  Xrotation Yrotation Zrotation
											End Site
											{
												OFFSET	1	0	0
											}
										}
									}
								}
							}
						}
					}
					JOINT right_clavicle
					{
						OFFSET	43.2	22.4	-70.8
						CHANNELS 3  Xrotation Yrotation Zrotation
						JOINT right_shoulder
						{
							OFFSET	93.9	-5.79999	48.7
							CHANNELS 3  Xrotation Yrotation Zrotation
							JOINT right_elbow
							{
								OFFSET	291.4	-30.8	15.2
								CHANNELS 3  Xrotation Yrotation Zrotation
								JOINT right_lowarm_twist
								{
									OFFSET	110.7	-3.89999	13.6
									CHANNELS 3  Xrotation Yrotation Zrotation
									JOINT right_hand
									{
										OFFSET	110.7	-3.89999	13.6
										CHANNELS 3  Xrotation Yrotation Zrotation
										JOINT right_ee
										{
											OFFSET	80.8	-5.10001	12.1
											CHANNELS 3  Xrotation Yrotation Zrotation
											End Site
											{
												OFFSET	1	0	0
											}
										}
									}
								}
							}
						}
					}
				}
			}
		}
	}
	JOINT left_hip
	{
		OFFSET	-82.8	-127.5	0.300001
		CHANNELS 3  Xrotation Yrotation Zrotation
		JOINT left_knee
		{
			OFFSET	-28.2	-396.7	2.2
			CHANNELS 3  Xrotation Yrotation Zrotation
			JOINT left_ankle
			{
				OFFSET	-11.7	-411.3	35.4
				CHANNELS 3  Xrotation Yrotation Zrotation
				JOINT left_toes
				{
					OFFSET	0	-60	-88.6
					CHANNELS 3  Xrotation Yrotation Zrotation
					JOINT left_foot_ee
					{
						OFFSET	-22.5	-16.5	-42.2
						CHANNELS 3  Xrotation Yrotation Zrotation
						End Site
						{
							OFFSET	1	0	0
						}
					}
				}
			}
		}
	}
	JOINT right_hip
	{
		OFFSET	82.8	-127.5	0.300001
		CHANNELS 3  Xrotation Yrotation Zrotation
		JOINT right_knee
		{
			OFFSET	28.2	-396.7	2.2
			CHANNELS 3  Xrotation Yrotation Zrotation
			JOINT right_ankle
			{
				OFFSET	11.7	-411.3	35.4
				CHANNELS 3  Xrotation Yrotation Zrotation
				JOINT right_toes
				{
					OFFSET	0	-60	-88.6
					CHANNELS 3  Xrotation Yrotation Zrotation
					JOINT right_foot_ee
					{
						OFFSET	22.5	-16.5	-42.2
						CHANNELS 3  Xrotation Yrotation Zrotation
						End Site
						{
							OFFSET	1	0	0
						}
					}
				}
			}
		}
	}
}
MOTION
Frames: 5
Frame Time: 0.02
3505.04198055 710.175 -1518.46719261 15.4512483948 75.0543340091 -15.832548579 0.106289 0.481713 0.710764 0.106464 0.43551 0.739974 0.112327 0.271887 0.814434 0.111621 0.397096 0.761278 3.37707 3.33676 -6.53554 3.70233 11.3914 -7.13801 -0.0 0.0 -0.0 -5.7041 17.0638 -6.91512 -12.6198 -35.056 70.8142 1.57039 -37.8776 0.538885 27.2007 0.144356 -3.43921 2.80813 4.0802 20.7005 -0.0 0.0 -0.0 4.31081 4.21247 -8.10946 0.451524 17.2209 -71.5857 0.831502 22.3867 -0.164544 7.05756 -0.194667 0.879933 5.89087 4.58713 -41.2109 0.0 0.0 0.0 2.63443 8.66383 -1.83066 -23.6839 0.233741 3.60116 28.8061 11.152 -3.77273 6.14922 -0.0 -0.0 -0.0 0.0 -0.0 -12.7388 15.9153 -4.25355 -13.0128 -0.313441 -1.96812 40.8291 -21.6636 5.14668 -8.6843 0.0 0.0 0.0 0.0 0.0 
3492.98549646 710.505 -1519.33166851 18.9835369585 75.9382894767 -19.8944767955 -0.135041 0.671231 0.697197 -0.134988 0.625508 0.738495 -0.126649 0.454491 0.854439 -0.127192 0.583726 0.771944 2.99395 3.93687 -5.20026 3.25179 11.2895 -5.54664 -0.0 0.0 -0.0 -6.35139 18.2195 -7.61479 -12.732 -32.7431 70.9576 1.5381 -37.3023 0.519185 27.654 0.132885 -3.49598 2.77144 4.09426 20.4462 -0.0 0.0 -0.0 4.18385 4.53681 -7.83605 2.0465 17.439 -71.5826 0.849275 22.8166 -0.171375 7.55536 -0.204282 0.942794 5.98358 3.3363 -42.7212 0.0 0.0 0.0 4.20572 8.96576 -1.77465 -27.265 0.139066 4.1425 32.5617 13.5523 -4.19322 4.6872 -0.0 -0.0 -0.0 0.0 -0.0 -15.6532 15.802 -4.1383 -10.5001 -0.287906 -1.58346 42.5364 -23.3874 5.35153 -7.62568 0.0 0.0 0.0 0.0 0.0 
3483.23980778 715.245 -1519.52424011 19.7421823944 76.6789778403 -20.9318814137 -0.361279 0.889704 0.749568 -0.361359 0.840206 0.804662 -0.349212 0.646535 0.967167 -0.349643 0.791162 0.85293 5.03629 3.88679 -5.38205 5.33847 11.3595 -5.99587 -0.0 0.0 -0.0 -6.51207 18.0602 -7.91495 -14.8146 -32.8129 71.2249 1.45636 -35.8059 0.470496 27.8677 0.127322 -3.52271 2.8109 4.0338 20.7028 -0.0 0.0 -0.0 4.50785 4.89068 -8.4693 4.52719 17.7348 -72.1937 0.875189 23.4386 -0.181554 7.6597 -0.206228 0.955981 6.08183 3.47165 -43.5558 0.0 0.0 0.0 5.9831 9.10986 -2.0282 -29.3018 0.0701738 4.44748 34.665 14.7074 -4.42098 3.72385 -0.0 -0.0 -0.0 0.0 -0.0 -15.9007 16.3004 -3.59714 -9.80936 -0.277931 -1.47794 41.6911 -23.8859 5.29076 -7.75889 0.0 0.0 0.0 0.0 0.0 
3475.94864621 713.756 -1523.65754523 26.0763656924 78.6305837927 -27.0117099087 -0.604573 0.648729 0.827615 -0.604389 0.594753 0.867215 -0.594961 0.389144 0.976908 -0.595888 0.538539 0.903198 6.55271 3.89072 -4.98618 6.8512 11.0064 -5.70815 -0.0 0.0 -0.0 -7.58276 18.8195 -9.36752 -15.1176 -31.8216 71.7095 1.46579 -35.9816 0.476028 28.4552 0.111512 -3.59609 2.79816 4.31291 20.7168 -0.0 0.0 -0.0 4.84831 6.11024 -9.09539 6.20451 18.6257 -72.3071 0.960048 25.4344 -0.216664 7.84811 -0.209682 0.979801 6.08529 2.94671 -43.872 0.0 0.0 0.0 8.0308 9.14032 -3.1979 -28.6851 0.0921807 4.35538 36.5115 15.3364 -4.6116 1.99313 -0.0 -0.0 -0.0 0.0 -0.0 -17.8408 15.2871 -4.1676 -4.7939 -0.167482 -0.716444 36.6672 -24.1649 4.81196 -9.65622 0.0 0.0 0.0 0.0 0.0 
3469.73379223 714.903 -1528.91972968 27.1768370055 80.9323783095 -27.4227560646 -0.785118 0.558007 0.860766 -0.784845 0.502106 0.894526 -0.776544 0.289625 0.984069 -0.777624 0.441399 0.925986 3.34173 5.18408 -4.45956 3.62379 12.8225 -4.6775 -0.0 0.0 -0.0 -8.17383 19.5039 -10.0647 -15.5353 -30.1408 72.0003 1.38481 -34.448 0.429325 29.2429 0.0891353 -3.69422 2.68274 3.31473 19.5267 -0.0 0.0 -0.0 4.97041 7.14439 -9.29023 7.89062 20.2991 -73.2823 1.20245 30.7793 -0.330988 8.51886 -0.221339 1.06469 6.0854 1.8162 -44.4744 0.0 0.0 0.0 9.85359 5.85855 -4.54624 -26.2453 0.169472 3.98895 34.4692 17.4109 -4.43938 0.152585 -0.0 -0.0 -0.0 0.0 -0.0 -18.0751 12.5733 -5.85556 0.213515 0.00885076 0.0315701 36.0917 -24.2855 4.75618 -10.4489 0.0 0.0 0.0 0.0 0.0 
